<?xml version="1.0" encoding="UTF-8"?>
<svg xmlns="http://www.w3.org/2000/svg" xmlns:xlink="http://www.w3.org/1999/xlink" width="50px" height="50px" viewBox="0 0 50 50" version="1.1">
<g id="surface1">
<path style=" stroke:none;fill-rule:nonzero;fill:rgb(19.607843%,74.509804%,65.098039%);fill-opacity:1;" d="M 0 25 C 0 11.191406 11.191406 0 25 0 C 38.808594 0 50 11.191406 50 25 C 50 38.808594 38.808594 50 25 50 C 11.191406 50 0 38.808594 0 25 Z M 0 25 "/>
<path style=" stroke:none;fill-rule:nonzero;fill:rgb(100%,100%,100%);fill-opacity:1;" d="M 43.15625 17.347656 C 42.113281 17.351562 41.070312 17.355469 40.027344 17.355469 C 37.683594 12.097656 33.078125 8.300781 27.265625 7.386719 C 20.785156 6.375 14.585938 9.382812 10.886719 14.675781 C 9.246094 17.027344 13.105469 19.226562 14.734375 16.894531 C 19.804688 9.636719 30.632812 10.292969 35.082031 17.367188 C 34.117188 17.371094 33.15625 17.371094 32.191406 17.375 C 31.921875 17.375 31.730469 17.496094 31.613281 17.664062 C 31.417969 17.871094 31.34375 18.175781 31.546875 18.488281 C 33.382812 21.335938 35.214844 24.183594 37.050781 27.03125 C 37.359375 27.507812 38.023438 27.503906 38.332031 27.027344 C 40.152344 24.167969 41.972656 21.3125 43.792969 18.457031 C 44.09375 17.984375 43.695312 17.347656 43.15625 17.347656 Z M 43.15625 17.347656 "/>
<path style=" stroke:none;fill-rule:nonzero;fill:rgb(100%,100%,100%);fill-opacity:1;" d="M 35.308594 32.976562 C 30.273438 40.179688 19.574219 39.589844 15.0625 32.667969 C 15.984375 32.667969 16.910156 32.664062 17.832031 32.660156 C 18.101562 32.660156 18.292969 32.542969 18.410156 32.375 C 18.605469 32.164062 18.679688 31.863281 18.476562 31.546875 C 16.640625 28.699219 14.808594 25.851562 12.972656 23.007812 C 12.664062 22.527344 12 22.53125 11.691406 23.011719 C 9.871094 25.867188 8.050781 28.722656 6.230469 31.578125 C 5.929688 32.050781 6.328125 32.691406 6.867188 32.6875 C 7.941406 32.6875 9.019531 32.683594 10.09375 32.679688 C 12.460938 37.851562 17.023438 41.582031 22.777344 42.484375 C 29.253906 43.5 35.457031 40.488281 39.152344 35.195312 C 40.792969 32.84375 36.933594 30.644531 35.308594 32.976562 Z M 35.308594 32.976562 "/>
</g>
</svg>
